<svg xmlns="http://www.w3.org/2000/svg" width="38" height="38" viewBox="0 0 38 38">
  <g id="Group_13746" data-name="Group 13746" transform="translate(-13 -265)">
    <g id="Rectangle_9901" data-name="Rectangle 9901" transform="translate(13 265)" fill="#a27a59" stroke="#707070" stroke-width="1" opacity="0">
      <rect width="38" height="38" stroke="none"/>
      <rect x="0.5" y="0.5" width="37" height="37" fill="none"/>
    </g>
    <g id="album" transform="translate(13.484 271.333)">
      <g id="Group_1473" data-name="Group 1473">
        <path id="Path_372" data-name="Path 372" d="M22.958,6.333h-.792V5.542a2.375,2.375,0,0,0-2.375-2.375H19V2.375A2.375,2.375,0,0,0,16.625,0H2.375A2.375,2.375,0,0,0,0,2.375v14.25A2.375,2.375,0,0,0,2.375,19h.792v.792a2.375,2.375,0,0,0,2.375,2.375h.792v.792a2.375,2.375,0,0,0,2.375,2.375h14.25a2.375,2.375,0,0,0,2.375-2.375V8.708A2.375,2.375,0,0,0,22.958,6.333Zm-21.375,6.8V2.375a.792.792,0,0,1,.792-.792h14.25a.792.792,0,0,1,.792.792V9.967L15.6,8.154a.792.792,0,0,0-1.116,0l-3.4,3.4-3.4-3.4a.792.792,0,0,0-1.116,0Zm3.958,7.45a.792.792,0,0,1-.792-.792V19H16.625A2.375,2.375,0,0,0,19,16.625V4.75h.792a.792.792,0,0,1,.792.792v14.25a.792.792,0,0,1-.792.792ZM23.75,22.958a.792.792,0,0,1-.792.792H8.708a.792.792,0,0,1-.792-.792v-.792H19.792a2.375,2.375,0,0,0,2.375-2.375V7.917h.792a.792.792,0,0,1,.792.792Z" fill="#a27a59"/>
      </g>
    </g>
  </g>
</svg>
