<svg xmlns="http://www.w3.org/2000/svg" width="24.793" height="24.793" viewBox="0 0 24.793 24.793">
  <path id="facebook" d="M21.454,0H3.343A3.341,3.341,0,0,0,0,3.341V21.452a3.341,3.341,0,0,0,3.341,3.341h8.932l.015-8.86h-2.3a.543.543,0,0,1-.543-.541l-.011-2.856a.543.543,0,0,1,.543-.545h2.3V9.232c0-3.2,1.956-4.946,4.812-4.946h2.344a.543.543,0,0,1,.543.543V7.237a.543.543,0,0,1-.543.543H17.994c-1.554,0-1.854.738-1.854,1.822v2.389h3.414a.543.543,0,0,1,.539.607l-.338,2.856a.543.543,0,0,1-.539.479h-3.06l-.015,8.86h5.315a3.341,3.341,0,0,0,3.341-3.341V3.341A3.341,3.341,0,0,0,21.454,0Z" transform="translate(-0.002)" fill="#475993"/>
</svg>
