<svg xmlns="http://www.w3.org/2000/svg" width="94.919" height="50.922" viewBox="0 0 94.919 50.922">
  <g id="XMLID_6_" transform="translate(87 -347.1)">
    <g id="XMLID_10_" transform="translate(-72.377 361.723)">
      <path id="XMLID_32_" d="M-5.1,392.491h0l.618-.051v.051a4.021,4.021,0,0,0,4.016,4.016,4.021,4.021,0,0,0,4.016-4.016,3.847,3.847,0,0,0-1.184-2.832l-6.076-6.179a4.632,4.632,0,0,1-1.339-3.3A4.659,4.659,0,0,1-.415,375.5a4.692,4.692,0,0,1,4.634,4.685H3.6a4.021,4.021,0,0,0-4.016-4.016,4.021,4.021,0,0,0-4.016,4.016,3.847,3.847,0,0,0,1.184,2.832L2.829,389.2a4.632,4.632,0,0,1,1.339,3.3,4.659,4.659,0,0,1-4.634,4.685A4.692,4.692,0,0,1-5.1,392.491Z" transform="translate(21.975 -375.5)" fill="#010101"/>
      <path id="XMLID_30_" d="M55.816,375.5v.618H51.491v21.007h-.566V376.169H46.6v-.618l9.216-.051Z" transform="translate(-3.105 -375.5)" fill="#010101"/>
      <path id="XMLID_28_" d="M91.6,392.491V380.185a4.634,4.634,0,1,1,9.268,0h-.618a4.016,4.016,0,0,0-8.032,0v12.306a4.016,4.016,0,0,0,8.032,0v-5.818H97.779v-.618h3.089v6.488h0a4.615,4.615,0,0,1-4.634,4.634A4.692,4.692,0,0,1,91.6,392.491Z" transform="translate(-35.045 -375.5)" fill="#010101"/>
      <g id="XMLID_19_">
        <g id="XMLID_23_" transform="translate(1.854)">
          <path id="XMLID_25_" d="M-54.382,375.5H-55v21.677h.618V375.5Z" transform="translate(55 -375.5)" fill="#010101"/>
          <path id="XMLID_24_" d="M-38.3,375.5v21.677h.618V375.5Z" transform="translate(46.899 -375.5)" fill="#010101"/>
        </g>
        <g id="XMLID_20_" transform="translate(0 7.929)">
          <path id="XMLID_22_" d="M-45.728,398.918-58.6,400.771v-.618l12.872-1.854Z" transform="translate(58.6 -394.49)" fill="#010101"/>
          <path id="XMLID_21_" d="M-45.728,391.518-58.6,393.371v-.618l12.872-1.854Z" transform="translate(58.6 -390.9)" fill="#010101"/>
        </g>
      </g>
      <g id="XMLID_12_" transform="translate(30.211)">
        <g id="XMLID_16_" transform="translate(0)">
          <path id="XMLID_18_" d="M21.418,375.5H20.8v21.677h.618V375.5Z" transform="translate(-20.8 -375.5)" fill="#010101"/>
          <path id="XMLID_17_" d="M37.5,375.5v21.677h.618V375.5Z" transform="translate(-28.901 -375.5)" fill="#010101"/>
        </g>
        <g id="XMLID_13_" transform="translate(0 9.886)">
          <path id="XMLID_15_" d="M30.016,395.318,20.8,396.605v-.618l9.216-1.287Z" transform="translate(-20.8 -394.7)" fill="#010101"/>
        </g>
      </g>
    </g>
    <path id="XMLID_7_" d="M7.919,398.022H-87V347.1H7.919Zm-94.582-.412H7.54v-50.1h-94.2Z" transform="translate(0 0)" fill="#010101"/>
  </g>
</svg>
