<svg id="pinterest" xmlns="http://www.w3.org/2000/svg" width="22.032" height="22.032" viewBox="0 0 22.032 22.032">
  <path id="Path_470" data-name="Path 470" d="M11.016,0A11.016,11.016,0,1,1,0,11.016,11.016,11.016,0,0,1,11.016,0Z" fill="#c8232c"/>
  <path id="Path_471" data-name="Path 471" d="M78.714,63.781c-3.882,0-5.838,2.695-5.838,4.941a3.027,3.027,0,0,0,1.673,3.022.283.283,0,0,0,.409-.2l.167-.635a.375.375,0,0,0-.117-.441,2.231,2.231,0,0,1-.539-1.551,3.81,3.81,0,0,1,4.021-3.788c2.194,0,3.4,1.3,3.4,3.031,0,2.28-1.042,4.205-2.59,4.205a1.236,1.236,0,0,1-1.289-1.524,16.541,16.541,0,0,0,.722-2.806,1.073,1.073,0,0,0-1.1-1.188c-.874,0-1.575.875-1.575,2.048a2.958,2.958,0,0,0,.261,1.252l-1.051,4.311a8.611,8.611,0,0,0-.024,3.005.11.11,0,0,0,.194.045,8.384,8.384,0,0,0,1.475-2.589c.1-.352.575-2.174.575-2.174a2.361,2.361,0,0,0,2,.987c2.625,0,4.407-2.318,4.407-5.42C83.885,65.966,81.833,63.781,78.714,63.781Z" transform="translate(-67.365 -58.957)" fill="#fff"/>
</svg>
