<svg xmlns="http://www.w3.org/2000/svg" width="16" height="16" viewBox="0 0 16 16">
  <path id="Path_354" data-name="Path 354" d="M2.344-11.656A7.708,7.708,0,0,1,8-14a7.708,7.708,0,0,1,5.656,2.344A7.708,7.708,0,0,1,16-6,7.708,7.708,0,0,1,13.656-.344,7.708,7.708,0,0,1,8,2,7.708,7.708,0,0,1,2.344-.344,7.708,7.708,0,0,1,0-6,7.708,7.708,0,0,1,2.344-11.656ZM3-1A6.876,6.876,0,0,0,8,1.063a6.8,6.8,0,0,0,4.984-2.078A6.8,6.8,0,0,0,15.063-6a6.8,6.8,0,0,0-2.078-4.984A6.8,6.8,0,0,0,8-13.062a6.8,6.8,0,0,0-4.984,2.078A6.8,6.8,0,0,0,.938-6,6.876,6.876,0,0,0,3-1ZM9.594-8.25a.42.42,0,0,1,.672-.016.42.42,0,0,1-.016.672L8.625-5.937,10.25-4.312a.4.4,0,0,1,0,.656.377.377,0,0,0-.125.047.369.369,0,0,1-.156.047.543.543,0,0,1-.375-.094L7.938-5.281,6.313-3.656a.72.72,0,0,1-.281.094.543.543,0,0,1-.375-.094.4.4,0,0,1,0-.656L7.281-5.937,5.656-7.594a.42.42,0,0,1-.016-.672.42.42,0,0,1,.672.016L7.938-6.625Z" transform="translate(0 14)" fill="#d1c2b4"/>
</svg>
