<svg xmlns="http://www.w3.org/2000/svg" width="12.359" height="14" viewBox="0 0 12.359 14">
  <path id="Path_6938" data-name="Path 6938" d="M11.949-9.789a1.18,1.18,0,0,1,.861.369,1.211,1.211,0,0,1,.369.889v1.641a.412.412,0,0,1-.123.273.376.376,0,0,1-.287.137h-.41V-.3a1.975,1.975,0,0,1-.6,1.449,2.007,2.007,0,0,1-1.477.6H3.719a2.007,2.007,0,0,1-1.477-.6A1.975,1.975,0,0,1,1.641-.3V-6.48H1.23a.363.363,0,0,1-.41-.41V-8.531a1.211,1.211,0,0,1,.369-.889,1.18,1.18,0,0,1,.861-.369h2.9v-1.23a1.18,1.18,0,0,1,.369-.861,1.18,1.18,0,0,1,.861-.369H7.82a1.18,1.18,0,0,1,.861.369,1.18,1.18,0,0,1,.369.861v1.23ZM5.77-11.02v1.23H8.23v-1.23a.363.363,0,0,0-.41-.41H6.18A.363.363,0,0,0,5.77-11.02ZM11.539-.3V-6.48H2.461V-.3A1.18,1.18,0,0,0,2.83.561,1.211,1.211,0,0,0,3.719.93h6.563A1.211,1.211,0,0,0,11.17.561,1.18,1.18,0,0,0,11.539-.3Zm.82-7v-1.23q0-.438-.41-.437h-9.9q-.41,0-.41.438V-7.3Zm-7.41,6.18a.363.363,0,0,1-.41.41.363.363,0,0,1-.41-.41V-4.43a.363.363,0,0,1,.41-.41.363.363,0,0,1,.41.41Zm2.461,0A.363.363,0,0,1,7-.711a.363.363,0,0,1-.41-.41V-4.43A.363.363,0,0,1,7-4.84a.363.363,0,0,1,.41.41Zm2.461,0a.363.363,0,0,1-.41.41.363.363,0,0,1-.41-.41V-4.43a.363.363,0,0,1,.41-.41.363.363,0,0,1,.41.41Z" transform="translate(-0.82 12.25)" fill="#333"/>
</svg>
