<svg id="twitter_1_" data-name="twitter (1)" xmlns="http://www.w3.org/2000/svg" xmlns:xlink="http://www.w3.org/1999/xlink" width="24.793" height="24.793" viewBox="0 0 24.793 24.793">
  <defs>
    <linearGradient id="linear-gradient" x1="0.332" y1="0.141" x2="0.585" y2="0.682" gradientUnits="objectBoundingBox">
      <stop offset="0" stop-color="#00c3ff"/>
      <stop offset="1" stop-color="#00b0ed"/>
    </linearGradient>
    <linearGradient id="linear-gradient-2" x1="0.738" y1="0.628" x2="-0.899" y2="-0.25" gradientUnits="objectBoundingBox">
      <stop offset="0" stop-color="#00b0ed" stop-opacity="0"/>
      <stop offset="1" stop-color="#00a2ce"/>
    </linearGradient>
    <linearGradient id="linear-gradient-3" x1="0.5" y1="0.27" x2="0.5" y2="0.926" xlink:href="#linear-gradient-2"/>
    <linearGradient id="linear-gradient-4" x1="0.946" y1="0.922" x2="0.342" y2="0.273" xlink:href="#linear-gradient-2"/>
  </defs>
  <path id="Path_190" data-name="Path 190" d="M20.359,24.369a74.886,74.886,0,0,1-15.924,0,4.514,4.514,0,0,1-4.01-4.01,74.884,74.884,0,0,1,0-15.924A4.514,4.514,0,0,1,4.435.424a74.884,74.884,0,0,1,15.924,0,4.514,4.514,0,0,1,4.01,4.01,74.884,74.884,0,0,1,0,15.924A4.514,4.514,0,0,1,20.359,24.369Zm0,0" fill="url(#linear-gradient)"/>
  <path id="Path_191" data-name="Path 191" d="M50.458,32.769A4.006,4.006,0,0,0,46.9,29.21a66.476,66.476,0,0,0-14.13,0,4.006,4.006,0,0,0-3.559,3.559,66.474,66.474,0,0,0,0,14.13,4.006,4.006,0,0,0,3.559,3.559,66.449,66.449,0,0,0,14.13,0A4.006,4.006,0,0,0,50.458,46.9,66.449,66.449,0,0,0,50.458,32.769Zm0,0" transform="translate(-27.438 -27.438)" fill="url(#linear-gradient-2)"/>
  <path id="Path_192" data-name="Path 192" d="M7.672,409.8q.026.257.053.514a4.514,4.514,0,0,0,4.01,4.01,74.889,74.889,0,0,0,15.924,0,4.514,4.514,0,0,0,4.01-4.01q.028-.257.053-.514Zm0,0" transform="translate(-7.3 -389.96)" fill="url(#linear-gradient-3)"/>
  <path id="Path_193" data-name="Path 193" d="M117.4,132.086l-5.146-5.146a6.141,6.141,0,0,1-1.468.614,4.2,4.2,0,0,1-.517.106,3.2,3.2,0,0,0-5.483,2.232c0,.064,0,.127.006.19a3.083,3.083,0,0,0,.058.45,8.754,8.754,0,0,1-5.415-2.165h0l-1.077-1.077a3.18,3.18,0,0,0,.594,3.879,3.545,3.545,0,0,0,.269.269l.024.026a3.131,3.131,0,0,1-1.4-.389,3.1,3.1,0,0,0,1.038,2.34l.907.915a1.765,1.765,0,0,1-.794-.076,3.054,3.054,0,0,0,.915,1.437l1.27,1.277a6.577,6.577,0,0,1-3.852.858l7.706,7.53a74.968,74.968,0,0,0,7.939-.424,4.514,4.514,0,0,0,4.01-4.01A75,75,0,0,0,117.4,132.086Zm0,0" transform="translate(-92.608 -120.56)" fill="url(#linear-gradient-4)"/>
  <path id="Path_194" data-name="Path 194" d="M112.685,128.181a5.781,5.781,0,0,1-1.649.458l-.007-.039a3.068,3.068,0,0,0,1.216-1.66,6.141,6.141,0,0,1-1.468.614,4.24,4.24,0,0,1-.517.106,3.2,3.2,0,0,0-5.483,2.232c0,.064,0,.127.006.189a3.082,3.082,0,0,0,.058.45,8.932,8.932,0,0,1-6.493-3.243,3.161,3.161,0,0,0,.969,4.178,3.333,3.333,0,0,1-1.484-.394,3.2,3.2,0,0,0,2.6,3.149,3.024,3.024,0,0,1-1.453.03,3.082,3.082,0,0,0,2.907,2.21,6.368,6.368,0,0,1-4.574,1.362,9.031,9.031,0,0,0,13.852-7.635q0-.093,0-.187c0-.037,0-.074,0-.111s0-.052,0-.078A5.65,5.65,0,0,0,112.685,128.181Zm0,0" transform="translate(-92.604 -120.56)" fill="#fff"/>
</svg>
