<svg xmlns="http://www.w3.org/2000/svg" width="38" height="38" viewBox="0 0 38 38">
  <g id="Group_13754" data-name="Group 13754" transform="translate(-234 -118)">
    <g id="Group_13662" data-name="Group 13662" transform="translate(164.857 272.857)">
      <g id="Rectangle_81" data-name="Rectangle 81" transform="translate(69.143 -154.857)" fill="#e64a19" stroke="#707070" stroke-width="1" opacity="0">
        <rect width="38" height="38" stroke="none"/>
        <rect x="0.5" y="0.5" width="37" height="37" fill="none"/>
      </g>
      <g id="Icon_feather-users" data-name="Icon feather-users" transform="translate(70.643 -150.357)">
        <path id="Path_575" data-name="Path 575" d="M19.585,29.282V27.021A4.521,4.521,0,0,0,15.064,22.5H6.021A4.521,4.521,0,0,0,1.5,27.021v2.261" transform="translate(0 -4.436)" fill="none" stroke="#a27a59" stroke-linecap="round" stroke-linejoin="round" stroke-width="2"/>
        <path id="Path_576" data-name="Path 576" d="M16.543,9.021A4.521,4.521,0,1,1,12.021,4.5a4.521,4.521,0,0,1,4.521,4.521Z" transform="translate(-1.479 0)" fill="none" stroke="#a27a59" stroke-linecap="round" stroke-linejoin="round" stroke-width="2"/>
        <path id="Path_577" data-name="Path 577" d="M33.391,29.33V27.069A4.521,4.521,0,0,0,30,22.7" transform="translate(-7.024 -4.484)" fill="none" stroke="#a27a59" stroke-linecap="round" stroke-linejoin="round" stroke-width="2"/>
        <path id="Path_578" data-name="Path 578" d="M24,4.7a4.521,4.521,0,0,1,0,8.76" transform="translate(-5.545 -0.048)" fill="none" stroke="#a27a59" stroke-linecap="round" stroke-linejoin="round" stroke-width="2"/>
      </g>
    </g>
  </g>
</svg>
